<?xml version="1.0" encoding="UTF-8"?>
<svg id="Layer_2" data-name="Layer 2" xmlns="http://www.w3.org/2000/svg" viewBox="0 0 123.57 141.75">
  <defs>
    <style>
      .cls-1 {
        fill: #56f07d;
      }

      .cls-2 {
        fill: #8db89b;
      }
    </style>
  </defs>
  <g id="Layer_3_Image_copy_13" data-name="Layer 3 Image copy 13">
    <path class="cls-2" d="M8,7.57c8.55,1.18,16.63,6.63,24.53,12.08,21.49,14.82,40.22,32.78,57.64,52.13,11.5,12.77,22.27,26.07,29.96,41.58,1.56,3.15,2.9,6.38,3.35,9.89.65,5.17-2.18,7.96-7.38,7.11-8.78-1.45-16.02-6.36-23.3-11-4.9-3.13-9.46-6.79-14.13-10.28-.98-.73-2.69-1.27-2.03-2.97.49-1.26,1.7-2.17,3.05-2.37,2.92-.43,5.67-.73,8.65.87,3.43,1.83,7.83,5.51,11.27,1.66,3.24-3.62-.3-7.96-2.26-11.4-9.86-17.28-23.68-31.23-38.31-44.43-7.67-6.92-15.76-13.37-25.09-17.95-3.13-1.54-6.92-4.45-10.07-1.19-2.88,2.98-.35,6.79,1.32,9.65,2.23,3.84,1.42,6.94-.89,10.12-.97,1.33-1.97,2.31-3.42.34C13.3,41.11,5.44,30.96,1.07,18.7c-.44-1.24-.72-2.56-.9-3.87-.77-5.57.91-7.45,7.83-7.26Z"/>
    <path class="cls-1" d="M121.84,9.75c-4.15,13.5-10.01,26.23-17.57,38.14-19.43,30.56-41.35,59.05-69.46,82.31-6.02,4.98-12.8,8.59-19.97,11.56h-2c-4.23-3.28-4.68-7.55-3.53-12.43,3.17-13.5,10.1-25.25,16.96-37.04,1.83-3.15,3.68-1.77,4.8.27,1.25,2.27,2.12,4.88,1.28,7.62-.29.95-.82,1.84-1.04,2.81-.83,3.73-3.95,8.17.07,11.01,3.84,2.72,7.64-.95,10.7-3.2,16.84-12.39,29.72-28.48,41.59-45.45,6.02-8.61,11.48-17.56,15.11-27.46,1.27-3.46,3.71-7.9.36-10.7-3.4-2.84-7.11.58-10.36,2.41-1.57.88-2.85,2.35-4.93,1.98-2.47-.44-5.5-.65-6.56-2.97-1.1-2.43,2.01-3.34,3.41-4.76,6.9-6.99,14.31-13.4,22.62-18.69,2.09-1.33,4.29-2.55,6.57-3.54,6.73-2.91,8.93-2.1,11.95,4.13v4Z"/>
  </g>
</svg>